<svg width="52" height="56" viewBox="0 0 52 56" fill="none" xmlns="http://www.w3.org/2000/svg">
<rect x="2.62598" y="0.75" width="46.5" height="46.5" rx="9.25" fill="url(#paint0_linear_5538_5456)"/>
<rect x="2.62598" y="0.75" width="46.5" height="46.5" rx="9.25" stroke="url(#paint1_linear_5538_5456)" stroke-width="1.5"/>
<g filter="url(#filter0_di_5538_5456)">
<mask id="path-2-outside-1_5538_5456" maskUnits="userSpaceOnUse" x="1.83435" y="-0.0416244" width="48.0833" height="48.0833" fill="black">
<rect fill="white" x="1.83435" y="-0.0416244" width="48.0833" height="48.0833"/>
<path fill-rule="evenodd" clip-rule="evenodd" d="M37.1896 20.2287C39.2724 18.1459 39.2724 14.769 37.1896 12.6862C35.1068 10.6034 31.7299 10.6034 29.6471 12.6862L27.3698 14.9635C26.9736 15.3597 26.4363 15.5823 25.876 15.5823C25.3157 15.5823 24.7783 15.3597 24.3821 14.9635L22.1048 12.6862C20.022 10.6034 16.6452 10.6034 14.5624 12.6862C12.4796 14.769 12.4796 18.1459 14.5624 20.2287L16.8766 22.543C17.2631 22.9294 17.4801 23.4535 17.4801 23.9999C17.4801 24.5464 17.2631 25.0704 16.8766 25.4569L14.5624 27.7711C12.4796 29.8539 12.4796 33.2308 14.5624 35.3136C16.6452 37.3964 20.022 37.3964 22.1048 35.3136L24.4178 33.0006C24.8046 32.6139 25.3291 32.3966 25.876 32.3966C26.4229 32.3966 26.9474 32.6139 27.3341 33.0006L29.6471 35.3136C31.7299 37.3964 35.1068 37.3964 37.1896 35.3136C39.2724 33.2308 39.2724 29.8539 37.1896 27.7711L34.9155 25.4971C34.5185 25.1 34.2954 24.5615 34.2954 23.9999C34.2954 23.4384 34.5185 22.8998 34.9155 22.5028L37.1896 20.2287ZM32.5887 23.9999C32.5887 23.4687 32.3777 22.9592 32.0021 22.5836L27.2953 17.8768C26.9189 17.5004 26.4083 17.2889 25.876 17.2889C25.3436 17.2889 24.8331 17.5004 24.4567 17.8768L19.7901 22.5434C19.4038 22.9297 19.1868 23.4536 19.1868 23.9999C19.1868 24.5462 19.4038 25.0701 19.7901 25.4564L24.421 30.0873C24.8069 30.4732 25.3302 30.69 25.876 30.69C26.4217 30.69 26.9451 30.4732 27.331 30.0873L32.0021 25.4162C32.3777 25.0406 32.5887 24.5311 32.5887 23.9999Z"/>
</mask>
<path fill-rule="evenodd" clip-rule="evenodd" d="M37.1896 20.2287C39.2724 18.1459 39.2724 14.769 37.1896 12.6862C35.1068 10.6034 31.7299 10.6034 29.6471 12.6862L27.3698 14.9635C26.9736 15.3597 26.4363 15.5823 25.876 15.5823C25.3157 15.5823 24.7783 15.3597 24.3821 14.9635L22.1048 12.6862C20.022 10.6034 16.6452 10.6034 14.5624 12.6862C12.4796 14.769 12.4796 18.1459 14.5624 20.2287L16.8766 22.543C17.2631 22.9294 17.4801 23.4535 17.4801 23.9999C17.4801 24.5464 17.2631 25.0704 16.8766 25.4569L14.5624 27.7711C12.4796 29.8539 12.4796 33.2308 14.5624 35.3136C16.6452 37.3964 20.022 37.3964 22.1048 35.3136L24.4178 33.0006C24.8046 32.6139 25.3291 32.3966 25.876 32.3966C26.4229 32.3966 26.9474 32.6139 27.3341 33.0006L29.6471 35.3136C31.7299 37.3964 35.1068 37.3964 37.1896 35.3136C39.2724 33.2308 39.2724 29.8539 37.1896 27.7711L34.9155 25.4971C34.5185 25.1 34.2954 24.5615 34.2954 23.9999C34.2954 23.4384 34.5185 22.8998 34.9155 22.5028L37.1896 20.2287ZM32.5887 23.9999C32.5887 23.4687 32.3777 22.9592 32.0021 22.5836L27.2953 17.8768C26.9189 17.5004 26.4083 17.2889 25.876 17.2889C25.3436 17.2889 24.8331 17.5004 24.4567 17.8768L19.7901 22.5434C19.4038 22.9297 19.1868 23.4536 19.1868 23.9999C19.1868 24.5462 19.4038 25.0701 19.7901 25.4564L24.421 30.0873C24.8069 30.4732 25.3302 30.69 25.876 30.69C26.4217 30.69 26.9451 30.4732 27.331 30.0873L32.0021 25.4162C32.3777 25.0406 32.5887 24.5311 32.5887 23.9999Z" fill="url(#paint2_linear_5538_5456)" shape-rendering="crispEdges"/>
<path d="M32.0021 25.4162L32.7092 26.1233L32.0021 25.4162ZM27.331 30.0873L28.0381 30.7944L27.331 30.0873ZM24.4178 33.0006L23.7107 32.2935L24.4178 33.0006ZM22.1048 35.3136L22.8119 36.0207L22.1048 35.3136ZM16.8766 22.543L16.1695 23.2501L16.8766 22.543ZM14.5624 20.2287L15.2695 19.5216L14.5624 20.2287ZM28.0769 15.6706L30.3542 13.3933L28.94 11.9791L26.6627 14.2564L28.0769 15.6706ZM25.0892 14.2564L22.8119 11.9791L21.3977 13.3933L23.675 15.6706L25.0892 14.2564ZM13.8553 20.9358L16.1695 23.2501L17.5838 21.8359L15.2695 19.5216L13.8553 20.9358ZM16.1695 24.7497L13.8553 27.064L15.2695 28.4782L17.5838 26.164L16.1695 24.7497ZM22.8119 36.0207L25.1249 33.7077L23.7107 32.2935L21.3977 34.6065L22.8119 36.0207ZM26.627 33.7077L28.94 36.0207L30.3542 34.6065L28.0412 32.2935L26.627 33.7077ZM37.8967 27.064L35.6226 24.79L34.2084 26.2042L36.4825 28.4782L37.8967 27.064ZM36.4825 19.5216L34.2084 21.7956L35.6226 23.2099L37.8967 20.9358L36.4825 19.5216ZM32.7092 21.8765L28.0024 17.1697L26.5882 18.5839L31.295 23.2907L32.7092 21.8765ZM20.4972 23.2505L25.1638 18.5839L23.7496 17.1697L19.083 21.8363L20.4972 23.2505ZM25.1281 29.3802L20.4972 24.7493L19.083 26.1635L23.7139 30.7944L25.1281 29.3802ZM31.295 24.7091L26.6239 29.3802L28.0381 30.7944L32.7092 26.1233L31.295 24.7091ZM32.7092 26.1233C33.2723 25.5601 33.5887 24.7963 33.5887 23.9999H31.5887C31.5887 24.2659 31.483 24.521 31.295 24.7091L32.7092 26.1233ZM25.876 31.69C26.6869 31.69 27.4647 31.3678 28.0381 30.7944L26.6239 29.3802C26.4255 29.5785 26.1565 29.69 25.876 29.69V31.69ZM23.7139 30.7944C24.2873 31.3678 25.065 31.69 25.876 31.69V29.69C25.5955 29.69 25.3264 29.5785 25.1281 29.3802L23.7139 30.7944ZM18.1868 23.9999C18.1868 24.8114 18.5092 25.5897 19.083 26.1635L20.4972 24.7493C20.2985 24.5506 20.1868 24.281 20.1868 23.9999L18.1868 23.9999ZM19.083 21.8363C18.5092 22.4101 18.1868 23.1884 18.1868 23.9999L20.1868 23.9999C20.1868 23.7188 20.2985 23.4493 20.4972 23.2505L19.083 21.8363ZM25.876 16.2889C25.0784 16.2889 24.3135 16.6058 23.7496 17.1697L25.1638 18.5839C25.3527 18.3951 25.6089 18.2889 25.876 18.2889V16.2889ZM28.0024 17.1697C27.4384 16.6058 26.6735 16.2889 25.876 16.2889V18.2889C26.1431 18.2889 26.3993 18.3951 26.5882 18.5839L28.0024 17.1697ZM31.295 23.2907C31.483 23.4788 31.5887 23.7339 31.5887 23.9999H33.5887C33.5887 23.2035 33.2723 22.4397 32.7092 21.8765L31.295 23.2907ZM35.2954 23.9999C35.2954 23.7036 35.4131 23.4194 35.6226 23.2099L34.2084 21.7956C33.6238 22.3803 33.2954 23.1731 33.2954 23.9999H35.2954ZM35.6226 24.79C35.4131 24.5804 35.2954 24.2962 35.2954 23.9999H33.2954C33.2954 24.8267 33.6238 25.6196 34.2084 26.2042L35.6226 24.79ZM37.8967 36.0207C40.37 33.5474 40.37 29.5374 37.8967 27.064L36.4825 28.4782C38.1748 30.1705 38.1748 32.9142 36.4825 34.6065L37.8967 36.0207ZM28.94 36.0207C31.4133 38.494 35.4234 38.494 37.8967 36.0207L36.4825 34.6065C34.7902 36.2988 32.0465 36.2988 30.3542 34.6065L28.94 36.0207ZM25.876 33.3966C26.1577 33.3966 26.4278 33.5085 26.627 33.7077L28.0412 32.2935C27.467 31.7192 26.6881 31.3966 25.876 31.3966V33.3966ZM25.1249 33.7077C25.3241 33.5085 25.5943 33.3966 25.876 33.3966V31.3966C25.0638 31.3966 24.285 31.7193 23.7107 32.2935L25.1249 33.7077ZM13.8553 36.0207C16.3286 38.494 20.3386 38.494 22.8119 36.0207L21.3977 34.6065C19.7055 36.2988 16.9617 36.2988 15.2695 34.6065L13.8553 36.0207ZM13.8553 27.064C11.3819 29.5374 11.3819 33.5474 13.8553 36.0207L15.2695 34.6065C13.5772 32.9142 13.5772 30.1705 15.2695 28.4782L13.8553 27.064ZM16.4801 23.9999C16.4801 24.2812 16.3684 24.5509 16.1695 24.7497L17.5838 26.164C18.1577 25.59 18.4801 24.8116 18.4801 23.9999L16.4801 23.9999ZM16.1695 23.2501C16.3684 23.4489 16.4801 23.7187 16.4801 23.9999L18.4801 23.9999C18.4801 23.1882 18.1577 22.4098 17.5838 21.8359L16.1695 23.2501ZM13.8553 11.9791C11.3819 14.4524 11.3819 18.4625 13.8553 20.9358L15.2695 19.5216C13.5772 17.8293 13.5772 15.0856 15.2695 13.3933L13.8553 11.9791ZM22.8119 11.9791C20.3386 9.50578 16.3286 9.50578 13.8553 11.9791L15.2695 13.3933C16.9617 11.701 19.7055 11.701 21.3977 13.3933L22.8119 11.9791ZM25.876 14.5823C25.5809 14.5823 25.2979 14.4651 25.0892 14.2564L23.675 15.6706C24.2587 16.2543 25.0505 16.5823 25.876 16.5823V14.5823ZM26.6627 14.2564C26.4541 14.4651 26.1711 14.5823 25.876 14.5823V16.5823C26.7015 16.5823 27.4932 16.2543 28.0769 15.6706L26.6627 14.2564ZM36.4825 13.3933C38.1748 15.0856 38.1748 17.8293 36.4825 19.5216L37.8967 20.9358C40.37 18.4625 40.37 14.4524 37.8967 11.9791L36.4825 13.3933ZM37.8967 11.9791C35.4234 9.50578 31.4133 9.50578 28.94 11.9791L30.3542 13.3933C32.0465 11.701 34.7902 11.701 36.4825 13.3933L37.8967 11.9791Z" fill="url(#paint3_linear_5538_5456)" mask="url(#path-2-outside-1_5538_5456)"/>
</g>
<defs>
<filter id="filter0_di_5538_5456" x="0" y="4.12411" width="51.752" height="51.7516" filterUnits="userSpaceOnUse" color-interpolation-filters="sRGB">
<feFlood flood-opacity="0" result="BackgroundImageFix"/>
<feColorMatrix in="SourceAlpha" type="matrix" values="0 0 0 0 0 0 0 0 0 0 0 0 0 0 0 0 0 0 127 0" result="hardAlpha"/>
<feOffset dy="6"/>
<feGaussianBlur stdDeviation="6"/>
<feComposite in2="hardAlpha" operator="out"/>
<feColorMatrix type="matrix" values="0 0 0 0 0 0 0 0 0 0 0 0 0 0 0 0 0 0 0.15 0"/>
<feBlend mode="normal" in2="BackgroundImageFix" result="effect1_dropShadow_5538_5456"/>
<feBlend mode="normal" in="SourceGraphic" in2="effect1_dropShadow_5538_5456" result="shape"/>
<feColorMatrix in="SourceAlpha" type="matrix" values="0 0 0 0 0 0 0 0 0 0 0 0 0 0 0 0 0 0 127 0" result="hardAlpha"/>
<feOffset dy="-4"/>
<feGaussianBlur stdDeviation="1"/>
<feComposite in2="hardAlpha" operator="arithmetic" k2="-1" k3="1"/>
<feColorMatrix type="matrix" values="0 0 0 0 0 0 0 0 0 0 0 0 0 0 0 0 0 0 0.03 0"/>
<feBlend mode="normal" in2="shape" result="effect2_innerShadow_5538_5456"/>
</filter>
<linearGradient id="paint0_linear_5538_5456" x1="25.876" y1="0" x2="25.876" y2="48" gradientUnits="userSpaceOnUse">
<stop stop-color="#375DFB"/>
<stop offset="1" stop-color="#698FFF"/>
</linearGradient>
<linearGradient id="paint1_linear_5538_5456" x1="25.876" y1="0" x2="25.876" y2="48" gradientUnits="userSpaceOnUse">
<stop stop-color="white" stop-opacity="0.3"/>
<stop offset="1" stop-color="white" stop-opacity="0.1"/>
</linearGradient>
<linearGradient id="paint2_linear_5538_5456" x1="25.876" y1="10" x2="25.876" y2="38" gradientUnits="userSpaceOnUse">
<stop stop-color="white"/>
<stop offset="1" stop-color="#AFC2FB"/>
</linearGradient>
<linearGradient id="paint3_linear_5538_5456" x1="25.876" y1="10" x2="25.876" y2="38" gradientUnits="userSpaceOnUse">
<stop stop-color="white" stop-opacity="0.9"/>
<stop offset="1" stop-color="white" stop-opacity="0.5"/>
</linearGradient>
</defs>
</svg>
